<svg version="1.1" xmlns="http://www.w3.org/2000/svg" xmlns:xlink="http://www.w3.org/1999/xlink" viewBox="0 0 512 512" xml:space="preserve">
          <polygon style="fill:#FF8C78;" points="375.716,503.983 136.284,503.983 102.079,213.244 409.921,213.244 "/>
          <polygon style="fill:#F6F6F7;" points="399.797,299.29 112.203,299.29 130.311,453.211 381.689,453.211 "/>
          <path style="fill:#DF7A6E;" d="M405.833,247.983l4.086-34.739H102.078l4.086,34.739l30.119,256h101.091
            c-61.62-57.199-101.091-145.105-101.091-243.708c0-4.118,0.09-8.212,0.227-12.292H405.833z"/>
          <polygon style="fill:#FFFFFF;" points="112.203,299.824 130.311,453.745 381.689,453.745 399.797,299.824 "/>
          <path style="fill:#ECEDEF;" d="M130.311,453.211h63.634c-29.551-43.467-49.343-96.243-55.554-153.921h-26.189L130.311,453.211z"/>
          <polygon style="fill:#B3B9BF;" points="401.369,161.937 110.63,161.937 127.733,93.528 384.267,93.528 "/>
          <rect x="67.875" y="153.386" style="fill:#ECEDEF;" width="376.251" height="68.409"/>
          <rect x="67.875" y="153.386" style="fill:#D9DCDF;" width="43.29" height="68.409"/>
          <path style="fill:#F6F6F7;" d="M315.86,153.386h-51.309c0,22.803,0,45.606,0,68.409h52.151
            C315.95,198.998,315.868,176.001,315.86,153.386z"/>
          <rect x="153.386" y="119.181" style="fill:#424F5E;" width="68.409" height="34.205"/>
          <rect x="153.386" y="119.181" style="fill:#68727E;" width="68.409" height="17.102"/>
          <path d="M444.125,145.369h-38.634l-13.447-53.786c-0.893-3.569-4.099-6.072-7.777-6.072H127.733c-3.678,0-6.885,2.503-7.777,6.072
            l-13.447,53.786H67.875c-4.428,0-8.017,3.589-8.017,8.017v68.409c0,4.427,3.588,8.017,8.017,8.017h28.082l32.365,275.108
            c0.475,4.037,3.897,7.08,7.961,7.08h239.432c4.065,0,7.487-3.043,7.961-7.08l13.078-111.165c0.517-4.397-2.627-8.381-7.025-8.899
            c-4.395-0.517-8.382,2.627-8.897,7.025l-6.272,53.312h-237.12l-16.223-137.887h269.565l-5.926,50.371
            c-0.517,4.397,2.627,8.381,7.025,8.899c0.319,0.037,0.634,0.056,0.947,0.056c4.008,0,7.472-3.001,7.95-7.08l15.264-129.738h28.083
            c4.428,0,8.017-3.589,8.017-8.017v-68.409C452.142,148.959,448.552,145.369,444.125,145.369z M133.991,101.545h244.017
            l10.956,43.825H229.812v-26.188c0-4.427-3.588-8.017-8.017-8.017h-68.409c-4.428,0-8.017,3.589-8.017,8.017v26.188h-22.333
            L133.991,101.545z M213.779,145.369h-52.376v-18.171h52.376V145.369z M372.674,461.227l-4.086,34.739H143.412l-4.086-34.739H372.674
            z M436.108,213.778H196.142c-4.428,0-8.017,3.589-8.017,8.017c0,4.427,3.588,8.017,8.017,8.017H399.9l-7.231,61.461H119.331
            l-7.231-61.461h41.286c4.428,0,8.017-3.589,8.017-8.017c0-4.427-3.588-8.017-8.017-8.017H75.891v-52.376h360.217V213.778z"/>
          <path d="M250.33,73.543c3.261,3.26,8.766,3.041,11.764-0.46c2.686-3.137,2.493-7.959-0.425-10.877
            c-5.156-5.156-4.385-7.479,1.847-17.042c6.044-9.278,16.161-24.807-1.847-42.816c-3.132-3.131-8.207-3.131-11.338,0
            c-3.131,3.131-3.131,8.207,0,11.337c8.476,8.476,6.197,12.83-0.249,22.726C244.64,44.764,235.532,58.744,250.33,73.543z"/>
          <path d="M310.855,73.543c3.261,3.26,8.766,3.041,11.764-0.46c2.686-3.137,2.493-7.959-0.425-10.877
            c-5.156-5.156-4.385-7.479,1.847-17.042c6.044-9.278,16.161-24.807-1.847-42.816c-3.132-3.131-8.207-3.131-11.338,0
            s-3.131,8.207,0,11.337c8.476,8.476,6.197,12.83-0.249,22.726C305.165,44.764,296.057,58.744,310.855,73.543z"/>
          <path d="M191.139,73.543c3.261,3.26,8.766,3.041,11.764-0.46c2.686-3.137,2.493-7.959-0.425-10.877
            c-5.156-5.156-4.385-7.479,1.847-17.042c6.044-9.278,16.161-24.807-1.847-42.816c-3.132-3.131-8.207-3.131-11.338,0
            c-3.131,3.131-3.131,8.207,0,11.337c8.476,8.476,6.197,12.83-0.249,22.726C185.449,44.764,176.341,58.744,191.139,73.543z"/>
          </svg>